<?xml version="1.0" encoding="UTF-8" standalone="no"?>
<!-- Created with Inkscape (http://www.inkscape.org/) -->

<svg
   xmlns:dc="http://purl.org/dc/elements/1.1/"
   xmlns:cc="http://creativecommons.org/ns#"
   xmlns:rdf="http://www.w3.org/1999/02/22-rdf-syntax-ns#"
   xmlns:svg="http://www.w3.org/2000/svg"
   xmlns="http://www.w3.org/2000/svg"
   xmlns:sodipodi="http://sodipodi.sourceforge.net/DTD/sodipodi-0.dtd"
   xmlns:inkscape="http://www.inkscape.org/namespaces/inkscape"
   id="svg3355"
   version="1.1"
   inkscape:version="0.91 r13725"
   xml:space="preserve"
   width="168.66251"
   height="168.65625"
   viewBox="0 0 168.66251 168.65625"
   sodipodi:docname="toolkitforynab-symbol-circle.svg"><metadata
     id="metadata3361"><rdf:RDF><cc:Work
         rdf:about=""><dc:format>image/svg+xml</dc:format><dc:type
           rdf:resource="http://purl.org/dc/dcmitype/StillImage" /><dc:title></dc:title></cc:Work></rdf:RDF></metadata><defs
     id="defs3359"><clipPath
       clipPathUnits="userSpaceOnUse"
       id="clipPath3369"><path
         d="M 0,288 432,288 432,0 0,0 0,288 Z"
         id="path3371"
         inkscape:connector-curvature="0" /></clipPath></defs><sodipodi:namedview
     pagecolor="#ffffff"
     bordercolor="#666666"
     borderopacity="1"
     objecttolerance="10"
     gridtolerance="10"
     guidetolerance="10"
     inkscape:pageopacity="0"
     inkscape:pageshadow="2"
     inkscape:window-width="640"
     inkscape:window-height="480"
     id="namedview3357"
     showgrid="false"
     inkscape:zoom="1.5805556"
     inkscape:cx="84.4155"
     inkscape:cy="84.559625"
     inkscape:window-x="0"
     inkscape:window-y="0"
     inkscape:window-maximized="0"
     inkscape:current-layer="g3367"
     fit-margin-top="0"
     fit-margin-left="0"
     fit-margin-right="0"
     fit-margin-bottom="0" /><g
     id="g3363"
     inkscape:groupmode="layer"
     inkscape:label="toolkitforynab-symbol-circle"
     transform="matrix(1.25,0,0,-1.25,-185.5845,264.09663)"><g
       id="g3365"><g
         id="g3367"
         clip-path="url(#clipPath3369)"><g
           id="g3373"
           transform="translate(215.9326,211.2773)"><path
             d="m 0,0 c -37.257,0 -67.465,-30.205 -67.465,-67.457 0,-37.255 30.208,-67.468 67.465,-67.468 37.257,0 67.465,30.213 67.465,67.468 C 67.465,-30.205 37.257,0 0,0"
             style="fill:#42ba3d;fill-opacity:1;fill-rule:nonzero;stroke:none"
             id="path3375"
             inkscape:connector-curvature="0" /></g><g
           id="g3377"
           transform="translate(266.0254,137.8574)"><path
             d="m 0,0 -36.44,-2.281 c -2.924,-0.191 -5.226,-2.488 -5.406,-5.396 l -2.287,-36.466 -5.96,0 -5.96,0 -2.287,36.425 c -0.18,2.939 -2.481,5.246 -5.421,5.437 l -36.44,2.281 0,5.963 0,5.97 36.44,2.287 -0.343,0 c 3.098,0 5.569,2.42 5.764,5.454 l 2.287,36.389 5.96,0 5.96,0 2.272,-36.281 c 0.154,-3.088 2.667,-5.562 5.78,-5.562 l -0.344,0 L 0,11.933 0,5.963 0,0 Z"
             style="fill:#ffffff;fill-opacity:1;fill-rule:nonzero;stroke:none"
             id="path3379"
             inkscape:connector-curvature="0" /></g></g></g></g></svg>